<svg width="106" height="108" xmlns="http://www.w3.org/2000/svg" xmlns:xlink="http://www.w3.org/1999/xlink" xml:space="preserve" overflow="hidden"><defs><clipPath id="clip0"><rect x="848" y="180" width="106" height="108"/></clipPath><clipPath id="clip1"><rect x="848" y="181" width="106" height="106"/></clipPath><clipPath id="clip2"><rect x="848" y="181" width="106" height="106"/></clipPath><clipPath id="clip3"><rect x="848" y="181" width="106" height="106"/></clipPath></defs><g clip-path="url(#clip0)" transform="translate(-848 -180)"><g clip-path="url(#clip1)"><g clip-path="url(#clip2)"><g clip-path="url(#clip3)"><path d="M920.893 287.049C919.082 287.049 917.284 286.748 915.553 286.161 912.766 285.216 910.332 283.59 908.429 281.413 906.287 282.866 903.8 283.652 901.203 283.688 901.133 283.696 901.062 283.701 900.991 283.701 900.934 283.701 900.841 283.696 900.761 283.688 900.108 283.679 899.529 283.63 898.99 283.551 897.021 283.25 895.161 282.521 893.54 281.417 890.418 284.964 885.873 287.04 881.076 287.04 878.895 287.04 876.766 286.616 874.747 285.772 867.31 282.68 863.202 274.545 864.951 266.811 862.451 266.246 860.137 264.956 858.344 263.106 854.47 259.109 853.565 253.062 855.924 248.142 852.377 245.969 849.753 242.546 848.614 238.527 846.56 231.275 849.608 223.705 855.919 219.871 855.217 218.414 854.788 216.828 854.656 215.207 854.373 211.687 855.473 208.26 857.765 205.561 859.638 203.357 862.16 201.838 864.951 201.211 863.291 193.852 866.917 186.075 873.78 182.692 876.077 181.561 878.532 180.982 881.081 180.982 885.882 180.982 890.427 183.058 893.549 186.614 895.749 185.116 898.306 184.33 900.978 184.33 903.663 184.33 906.256 185.134 908.438 186.614 911.565 183.063 916.109 180.987 920.906 180.987 923.088 180.987 925.217 181.411 927.235 182.25 931.32 183.95 934.5 187.135 936.188 191.225 937.499 194.4 937.786 197.898 937.031 201.211 939.531 201.776 941.841 203.066 943.63 204.912 947.508 208.909 948.413 214.955 946.054 219.88 950.926 222.866 953.987 228.236 953.991 234.009 953.991 239.781 950.926 245.156 946.054 248.142 946.757 249.609 947.194 251.194 947.322 252.819 947.605 256.344 946.5 259.771 944.213 262.465 942.34 264.669 939.823 266.184 937.027 266.807 938.687 274.165 935.061 281.943 928.198 285.326 925.892 286.474 923.432 287.049 920.893 287.049ZM908.994 273.026C909.091 273.026 909.188 273.03 909.286 273.039 910.43 273.141 911.459 273.843 911.967 274.876 913.137 277.257 915.169 279.037 917.682 279.894 918.724 280.247 919.802 280.428 920.888 280.428 922.412 280.428 923.887 280.083 925.274 279.399 929.96 277.089 932.062 271.497 930.057 266.67 929.461 265.239 929.956 263.556 931.237 262.673 931.687 262.364 932.093 262.002 932.456 261.595 933.025 260.955 933.811 260.566 934.664 260.496 936.426 260.354 938.025 259.533 939.173 258.186 940.317 256.839 940.869 255.125 940.728 253.367 940.6 251.764 939.893 250.271 938.736 249.149 937.888 248.328 937.539 247.104 937.831 245.96 938.118 244.816 939.001 243.907 940.141 243.584 944.398 242.378 947.371 238.448 947.371 234.022 947.371 229.601 944.394 225.666 940.141 224.464 939.001 224.133 938.113 223.223 937.826 222.075 937.535 220.931 937.884 219.708 938.732 218.886 939.995 217.658 940.71 216.007 940.737 214.235 940.763 212.464 940.101 210.79 938.873 209.523 937.755 208.37 936.258 207.663 934.659 207.531 933.807 207.46 933.025 207.072 932.456 206.431 932.098 206.025 931.687 205.663 931.232 205.349 929.956 204.47 929.461 202.787 930.057 201.352 931.073 198.901 931.078 196.202 930.066 193.747 929.055 191.295 927.147 189.378 924.695 188.363 923.485 187.859 922.209 187.603 920.901 187.603 917.134 187.603 913.627 189.776 911.971 193.146 911.463 194.175 910.434 194.882 909.29 194.983 909.188 194.996 909.091 195.001 908.994 195.001 907.943 195.001 906.949 194.497 906.326 193.649 905.085 191.962 903.085 190.955 900.982 190.955 899.565 190.955 898.213 191.397 897.074 192.24 896.535 192.638 896.058 193.115 895.66 193.654 895.042 194.497 894.044 195.005 892.993 195.005 892.895 195.005 892.798 195.001 892.701 194.992 891.553 194.89 890.528 194.188 890.02 193.155 888.333 189.736 884.91 187.612 881.085 187.612 879.562 187.612 878.086 187.956 876.708 188.636 872.022 190.946 869.924 196.533 871.93 201.361 872.526 202.796 872.027 204.479 870.75 205.362 870.3 205.667 869.889 206.034 869.527 206.44 868.957 207.076 868.175 207.469 867.323 207.535 865.561 207.681 863.957 208.503 862.813 209.85 861.67 211.197 861.117 212.91 861.263 214.673 861.391 216.271 862.098 217.769 863.251 218.886 864.099 219.712 864.448 220.931 864.156 222.075 863.869 223.223 862.981 224.133 861.846 224.456 859.298 225.175 857.178 226.854 855.884 229.173 854.59 231.491 854.272 234.177 854.992 236.725 855.924 240.02 858.551 242.648 861.846 243.58 862.981 243.902 863.869 244.812 864.156 245.956 864.443 247.104 864.099 248.323 863.251 249.145 860.632 251.684 860.565 255.88 863.105 258.499 864.222 259.652 865.72 260.359 867.323 260.491 868.18 260.562 868.966 260.951 869.531 261.595 869.893 262.002 870.304 262.364 870.75 262.669 872.031 263.552 872.53 265.235 871.934 266.67 869.832 271.732 872.234 277.557 877.296 279.659 878.506 280.163 879.782 280.415 881.085 280.415 884.857 280.415 888.364 278.242 890.02 274.876 890.528 273.847 891.557 273.141 892.701 273.039 892.794 273.03 892.895 273.026 892.993 273.026 894.039 273.026 895.037 273.529 895.66 274.373 896.208 275.115 896.897 275.729 897.683 276.179L897.683 220.193C893.774 218.807 891.058 215.061 891.058 210.826 891.058 205.345 895.515 200.888 900.996 200.888 906.477 200.888 910.933 205.345 910.933 210.826 910.933 215.066 908.217 218.811 904.308 220.193L904.308 276.184C904.52 276.064 904.723 275.932 904.918 275.786 905.456 275.389 905.933 274.912 906.331 274.373 906.949 273.529 907.947 273.026 908.994 273.026ZM900.991 207.513C899.163 207.513 897.679 208.997 897.679 210.826 897.679 212.654 899.163 214.138 900.991 214.138 902.82 214.138 904.304 212.654 904.304 210.826 904.304 208.997 902.82 207.513 900.991 207.513Z" fill="#000000" fill-rule="nonzero" fill-opacity="1"/><path d="M887.741 267.138C885.913 267.138 884.429 265.654 884.429 263.826L884.429 252.347 875.966 246.707C875.043 246.093 874.491 245.059 874.491 243.951L874.491 236.756C870.582 235.369 867.866 231.624 867.866 227.388 867.866 221.907 872.323 217.451 877.804 217.451 883.285 217.451 887.741 221.907 887.741 227.388 887.741 231.628 885.025 235.374 881.116 236.756L881.116 242.175 889.578 247.815C890.502 248.429 891.054 249.463 891.054 250.571L891.054 263.821C891.054 265.654 889.57 267.138 887.741 267.138ZM877.804 224.076C875.975 224.076 874.491 225.56 874.491 227.388 874.491 229.217 875.975 230.701 877.804 230.701 879.632 230.701 881.116 229.217 881.116 227.388 881.116 225.56 879.632 224.076 877.804 224.076Z" fill="#000000" fill-rule="nonzero" fill-opacity="1"/><path d="M914.241 267.138C912.413 267.138 910.929 265.654 910.929 263.826L910.929 250.576C910.929 249.467 911.481 248.438 912.404 247.82L920.866 242.18 920.866 236.76C916.957 235.374 914.241 231.628 914.241 227.393 914.241 221.912 918.698 217.455 924.179 217.455 929.66 217.455 934.116 221.912 934.116 227.393 934.116 231.633 931.4 235.378 927.491 236.76L927.491 243.955C927.491 245.064 926.939 246.093 926.016 246.711L917.554 252.351 917.554 263.83C917.554 265.654 916.07 267.138 914.241 267.138ZM924.179 224.076C922.35 224.076 920.866 225.56 920.866 227.388 920.866 229.217 922.35 230.701 924.179 230.701 926.007 230.701 927.491 229.217 927.491 227.388 927.491 225.56 926.007 224.076 924.179 224.076Z" fill="#000000" fill-rule="nonzero" fill-opacity="1"/></g></g></g></g></svg>