<svg width="252" height="297" xmlns="http://www.w3.org/2000/svg" xmlns:xlink="http://www.w3.org/1999/xlink" xml:space="preserve" overflow="hidden"><defs><clipPath id="clip0"><rect x="2310" y="110" width="252" height="297"/></clipPath></defs><g clip-path="url(#clip0)" transform="translate(-2310 -110)"><path d="M2480.84 287.933C2472.12 295.773 2467.29 306.973 2467.48 318.733L2467.48 329C2467.48 336.653 2461.17 343 2453.56 343L2416.44 343C2408.83 343 2402.52 336.653 2402.52 329L2402.52 318.733C2402.71 307.16 2397.88 295.96 2389.16 288.12 2360.39 262.733 2357.23 218.68 2382.29 189.747 2392.13 178.36 2405.3 170.52 2419.97 167.347 2457.46 158.947 2494.76 182.84 2502.93 220.733 2504.04 225.587 2504.6 230.627 2504.6 235.667 2504.6 255.827 2495.88 274.867 2480.84 287.933ZM2435 137.667 2435 119M2366.14 166.413 2352.96 153.16M2337.56 235.667 2319 235.667M2366.14 304.92 2352.96 318.173M2503.86 304.92 2517.04 318.173M2532.44 235.667 2551 235.667M2503.86 166.413 2517.04 153.16" stroke="#000000" stroke-width="13.75" stroke-linecap="round" stroke-linejoin="round" stroke-miterlimit="10" stroke-opacity="1" fill="none" fill-rule="evenodd"/><path d="M2402 370.182 2467.63 370.182M2416.25 398 2453.75 398M2477 235.727C2477 212.731 2458.06 194 2434.81 194 2434.81 194 2434.81 194 2434.81 194" stroke="#000000" stroke-width="13.75" stroke-linecap="round" stroke-linejoin="round" stroke-miterlimit="10" stroke-opacity="1" fill="none" fill-rule="evenodd"/></g></svg>