<svg width="330" height="330" xmlns="http://www.w3.org/2000/svg" xmlns:xlink="http://www.w3.org/1999/xlink" xml:space="preserve" overflow="hidden"><defs><clipPath id="clip0"><rect x="2708" y="210" width="330" height="330"/></clipPath></defs><g clip-path="url(#clip0)" transform="translate(-2708 -210)"><path d="M2925.91 347.279 2838.17 276.5 2838.17 417.453 2925.91 347.279ZM2758.5 458.993 2758.5 496.5M2783.91 458.993 2783.91 496.5M2995.5 477.747 2962.42 477.747M2937.61 477.747 2808.93 477.747M2962.42 477.747C2962.42 484.603 2956.77 490.249 2950.12 490.249 2943.46 490.249 2937.61 484.603 2937.61 477.948 2937.61 471.092 2943.26 465.446 2949.92 465.446 2956.77 465.446 2962.42 470.89 2962.42 477.747Z" stroke="#000000" stroke-width="20.625" stroke-linecap="round" stroke-linejoin="round" stroke-miterlimit="10" stroke-opacity="1" fill="none" fill-rule="evenodd"/><path d="M2723.5 515.42 2723.5 237.58C2723.5 230.936 2728.94 225.5 2735.58 225.5L3013.42 225.5C3020.06 225.5 3025.5 230.936 3025.5 237.58L3025.5 515.42C3025.5 522.064 3020.06 527.5 3013.42 527.5L2735.58 527.5C2728.94 527.5 2723.5 522.064 2723.5 515.42Z" stroke="#000000" stroke-width="20.625" stroke-linecap="round" stroke-linejoin="round" stroke-miterlimit="10" stroke-opacity="1" fill="none" fill-rule="evenodd"/><path d="M2922.5 476.5C2922.5 463.797 2932.57 453.5 2945 453.5 2957.43 453.5 2967.5 463.797 2967.5 476.5 2967.5 489.203 2957.43 499.5 2945 499.5 2932.57 499.5 2922.5 489.203 2922.5 476.5Z" stroke="#000000" stroke-width="20.625" stroke-linecap="butt" stroke-linejoin="miter" stroke-miterlimit="8" stroke-opacity="1" fill="#FFFFFF" fill-rule="evenodd" fill-opacity="1"/></g></svg>