<svg width="358" height="362" xmlns="http://www.w3.org/2000/svg" xmlns:xlink="http://www.w3.org/1999/xlink" xml:space="preserve" overflow="hidden"><defs><clipPath id="clip0"><rect x="2557" y="1810" width="358" height="362"/></clipPath></defs><g clip-path="url(#clip0)" transform="translate(-2557 -1810)"><path d="M2736.5 2013C2737.8 2013 2739.09 2013.24 2740.34 2013.7 2740.46 2013.74 2740.56 2013.77 2740.67 2013.82 2742.09 2014.4 2743.31 2015.21 2744.35 2016.27L2799.76 2071.97C2804.08 2076.31 2804.08 2083.39 2799.76 2087.74 2797.66 2089.85 2794.89 2091.01 2791.93 2091.01 2788.97 2091.01 2786.18 2089.85 2784.09 2087.74L2747.59 2051.04 2747.59 2157.86C2747.59 2164.01 2742.62 2169 2736.5 2169 2730.38 2169 2725.41 2164.01 2725.41 2157.86L2725.41 2051.04 2688.91 2087.74C2686.81 2089.85 2684.03 2091.01 2681.07 2091.01 2678.11 2091.01 2675.32 2089.85 2673.24 2087.74 2668.92 2083.4 2668.92 2076.33 2673.24 2071.97L2728.67 2016.25C2729.7 2015.21 2730.93 2014.4 2732.3 2013.82 2732.42 2013.77 2732.55 2013.71 2732.69 2013.67 2733.94 2013.24 2735.23 2013 2736.5 2013Z" fill="#000000" fill-rule="evenodd" fill-opacity="1"/><path d="M2803.43 2057C2797.27 2057 2792.28 2052.01 2792.28 2045.87 2792.28 2039.72 2797.27 2034.73 2803.43 2034.73L2831.29 2034.73C2847.81 2034.61 2863.23 2028.27 2874.69 2016.87 2886.3 2005.32 2892.69 1989.95 2892.72 1973.59 2892.78 1939.82 2865.31 1912.3 2831.52 1912.24 2818.9 1912.24 2806.85 1916 2796.56 1923.11 2794.67 1924.4 2792.49 1925.09 2790.21 1925.09 2788.76 1925.09 2787.32 1924.81 2785.96 1924.24 2782.47 1922.8 2779.94 1919.73 2779.25 1916 2774.3 1889.69 2759.39 1866.89 2737.27 1851.77 2720.49 1840.31 2700.98 1834.26 2680.87 1834.26 2674.63 1834.26 2668.33 1834.85 2662.13 1836.01 2635.81 1840.95 2612.96 1855.84 2597.83 1877.93 2582.72 1900.03 2577.12 1926.69 2582.05 1953 2590.18 1996.23 2626.45 2029.61 2670.24 2034.17 2673.2 2034.48 2675.88 2035.92 2677.75 2038.23 2679.62 2040.55 2680.49 2043.45 2680.17 2046.4 2679.58 2052.09 2674.79 2056.38 2669.04 2056.38 2668.7 2056.38 2668.34 2056.36 2668 2056.33 2614.41 2050.75 2570.09 2009.95 2560.14 1957.11 2554.09 1924.95 2560.95 1892.38 2579.44 1865.37 2597.92 1838.37 2625.84 1820.17 2658.03 1814.12 2665.52 1812.71 2673.14 1812 2680.71 1812 2734.27 1812 2781.33 1846.68 2797.44 1897.15 2808.08 1892.38 2819.4 1889.96 2831.18 1889.96 2831.18 1889.96 2831.56 1889.96 2831.56 1889.96 2877.64 1890.03 2915.07 1927.57 2915 1973.62 2914.93 2019.59 2877.41 2056.99 2831.4 2056.99L2803.43 2056.99Z" fill="#000000" fill-rule="evenodd" fill-opacity="1"/></g></svg>